<?xml version="1.0" encoding="UTF-8"?>
<!DOCTYPE svg PUBLIC "-//W3C//DTD SVG 1.0//EN" "http://www.w3.org/TR/2001/REC-SVG-20010904/DTD/svg10.dtd">
<!-- Creator: CorelDRAW 2021.5 -->
<svg xmlns="http://www.w3.org/2000/svg" xml:space="preserve" width="10in" height="10in" version="1.0" style="shape-rendering:geometricPrecision; text-rendering:geometricPrecision; image-rendering:optimizeQuality; fill-rule:evenodd; clip-rule:evenodd" viewBox="0 0 10000 10000" xmlns:xlink="http://www.w3.org/1999/xlink" xmlns:xodm="http://www.corel.com/coreldraw/odm/2003">
 <defs>
  <style type="text/css">
   <![CDATA[
    .fil0 {fill:none}
    .fil1 {fill:#7D7AEB}
    .fil9 {fill:url(#id0)}
    .fil11 {fill:url(#id1)}
    .fil10 {fill:url(#id2)}
    .fil8 {fill:url(#id3);fill-rule:nonzero}
    .fil6 {fill:url(#id4);fill-rule:nonzero}
    .fil7 {fill:url(#id5);fill-rule:nonzero}
    .fil3 {fill:url(#id6);fill-rule:nonzero}
    .fil5 {fill:url(#id7);fill-rule:nonzero}
    .fil2 {fill:url(#id8);fill-rule:nonzero}
    .fil4 {fill:url(#id9);fill-rule:nonzero}
   ]]>
  </style>
  <linearGradient id="id0" gradientUnits="userSpaceOnUse" x1="5113.21" y1="4134.83" x2="3390.1" y2="2238.52">
   <stop offset="0" style="stop-opacity:1; stop-color:#FF3C4B"/>
   <stop offset="1" style="stop-opacity:1; stop-color:#7D7AEB"/>
  </linearGradient>
  <linearGradient id="id1" gradientUnits="userSpaceOnUse" x1="4861.48" y1="2305.54" x2="6977.68" y2="4679.17">
   <stop offset="0" style="stop-opacity:1; stop-color:#FF3C4B"/>
   <stop offset="1" style="stop-opacity:1; stop-color:#980014"/>
  </linearGradient>
  <linearGradient id="id2" gradientUnits="userSpaceOnUse" xlink:href="#id1" x1="5932.44" y1="5280.85" x2="3149.49" y2="5280.81">
  </linearGradient>
  <linearGradient id="id3" gradientUnits="userSpaceOnUse" x1="7889.25" y1="7187.37" x2="240.53" y2="5913.17">
   <stop offset="0" style="stop-opacity:1; stop-color:#FF3C4B"/>
   <stop offset="1" style="stop-opacity:1; stop-color:#5A60E4"/>
  </linearGradient>
  <linearGradient id="id4" gradientUnits="userSpaceOnUse" xlink:href="#id3" x1="7889.23" y1="7187.37" x2="240.53" y2="5913.17">
  </linearGradient>
  <linearGradient id="id5" gradientUnits="userSpaceOnUse" xlink:href="#id3" x1="7889.23" y1="7187.37" x2="240.53" y2="5913.17">
  </linearGradient>
  <linearGradient id="id6" gradientUnits="userSpaceOnUse" xlink:href="#id3" x1="7889.23" y1="7187.37" x2="240.53" y2="5913.17">
  </linearGradient>
  <linearGradient id="id7" gradientUnits="userSpaceOnUse" xlink:href="#id3" x1="7889.23" y1="7187.37" x2="240.53" y2="5913.17">
  </linearGradient>
  <linearGradient id="id8" gradientUnits="userSpaceOnUse" xlink:href="#id3" x1="7889.23" y1="7187.37" x2="240.5" y2="5913.17">
  </linearGradient>
  <linearGradient id="id9" gradientUnits="userSpaceOnUse" xlink:href="#id3" x1="7889.23" y1="7187.37" x2="240.48" y2="5913.15">
  </linearGradient>
 </defs>
 <g id="Layer_x0020_1">
  <metadata id="CorelCorpID_0Corel-Layer"/>
  <rect class="fil0" width="10000" height="10000"/>
  <g id="_1976976022800">
   <path class="fil1" d="M3149.46 1540l0.02 0c32.44,0 58.98,26.55 58.98,58.98l0 322.12c0,32.44 -26.55,58.99 -58.98,58.99l-0.02 0c-32.44,0 -58.98,-26.55 -58.98,-58.99l0 -322.12c0,-32.44 26.55,-58.98 58.98,-58.98z"/>
   <path class="fil1" d="M2666.27 1740.17l0.02 -0.02c22.94,-22.93 60.48,-22.94 83.42,0l227.77 227.77c22.94,22.94 22.94,60.49 0,83.42l-0.02 0.02c-22.93,22.94 -60.48,22.94 -83.41,0l-227.77 -227.78c-22.94,-22.93 -22.94,-60.48 -0.01,-83.42z"/>
   <path class="fil1" d="M2466.15 2223.37l0 -0.03c0,-32.43 26.55,-58.98 58.98,-58.98l322.13 0c32.44,0 58.98,26.56 58.98,58.98l0 0.03c0,32.44 -26.55,58.99 -58.98,58.99l-322.13 0c-32.44,0 -58.98,-26.55 -58.98,-58.99z"/>
   <path class="fil1" d="M2666.31 2706.57l-0.02 -0.02c-22.93,-22.93 -22.93,-60.48 0,-83.42l227.77 -227.77c22.94,-22.94 60.48,-22.94 83.42,-0l0.02 0.02c22.93,22.93 22.93,60.48 -0.01,83.41l-227.77 227.77c-22.93,22.94 -60.48,22.94 -83.41,0.01z"/>
   <path class="fil1" d="M3632.67 1740.13l0.02 0.02c22.93,22.93 22.94,60.48 0,83.42l-227.77 227.77c-22.94,22.94 -60.49,22.94 -83.42,0l-0.02 -0.02c-22.93,-22.93 -22.94,-60.48 0,-83.41l227.77 -227.77c22.94,-22.94 60.49,-22.94 83.42,-0.01z"/>
  </g>
  <g id="_1976976025104">
   <path class="fil2" d="M7985.56 7827.22l0 213.03c-43.47,23.1 -88.88,41.5 -136.67,54.83 -47.38,13.3 -90.44,19.96 -129.6,19.96 -108.47,0 -206.77,-24.69 -295.25,-74.42 -88.5,-49.73 -158.2,-118.24 -209.5,-205.56 -51.3,-87.34 -76.77,-184.83 -76.77,-292.52 0,-113.17 24.28,-215.76 72.85,-307.39 48.54,-91.63 117.08,-164.08 204.78,-216.16 88.13,-52.45 189.53,-78.71 304.26,-78.71 83.43,0 159.77,15.68 229.49,46.6 69.7,30.95 128.44,72.83 176.6,125.31 48.17,52.86 85.13,112.33 110.79,178.95 25.61,66.48 38.4,136.29 38.4,208.71 0,266.76 42.42,601.56 -168,804.28 -53.24,51.3 -115.94,90.02 -188.34,116.3 -72.07,26.15 -150,39.56 -233.4,39.56 -113.17,0 -236.91,-21.94 -371.61,-65.41l49.35 -188.34c68.91,18.4 126.52,32.33 173.07,41.91 46.63,9.58 93.2,14.46 139.8,14.49 469.1,0.27 392.36,-381.7 392.36,-716.56 0,-81.06 -16.06,-152.75 -48.17,-215 -32.08,-62.25 -75.58,-110.41 -130.78,-143.71 -54.83,-33.27 -114.73,-49.73 -178.95,-49.73 -78.71,0 -145.65,18.81 -201.27,56.39 -55.21,37.59 -96.73,87.32 -123.74,149.19 -27.01,62.28 -40.72,131.98 -40.72,210.28 0,72.85 16.43,136.67 49.32,191.88 32.89,55.2 78.33,97.52 135.89,127.66 57.56,29.76 121.77,44.66 191.87,44.66 72.83,0 160.93,-30.17 263.92,-90.48z"/>
   <path class="fil3" d="M6200.36 8091.54l-206.77 0 0 -657.06c0,-95.55 20.75,-181.33 62.65,-256.88 41.53,-75.58 99.08,-133.94 172.31,-175.44 73.61,-41.12 155.83,-61.87 246.68,-61.87 90.85,0 173.1,20.75 246.71,61.87 73.23,41.5 130.79,99.86 172.29,175.44 41.9,75.56 62.65,161.33 62.65,256.88l0 657.06 -206.74 0 0 -657.85c0,-56.39 -12.55,-107.31 -37.21,-152.72 -24.67,-45.04 -58.34,-80.28 -100.62,-105.34 -42.69,-25.44 -88.13,-37.99 -137.07,-37.99 -48.94,0 -94.36,12.55 -137.05,37.99 -42.28,25.07 -75.96,60.31 -100.65,105.34 -24.66,45.41 -37.18,96.33 -37.18,152.72l0 657.85z"/>
   <path class="fil4" d="M5417.12 6710.04c0,-38.34 13.13,-72.3 39.43,-101.31 26.26,-29.02 61.31,-43.24 105.12,-43.24 43.8,0 78.86,14.22 105.12,42.71 26.3,28.45 39.43,62.41 39.43,101.84 0,38.33 -13.13,72.29 -39.43,101.31 -26.26,29.02 -61.31,43.24 -105.12,43.24 -43.81,0 -78.86,-14.22 -105.12,-43.24 -26.3,-29.02 -39.43,-62.97 -39.43,-101.31z"/>
   <path class="fil5" d="M5665.04 8091.54l-206.74 0 0 -1127.76 206.74 0 0 1127.76z"/>
   <path class="fil6" d="M5201.82 6963.79l0 197.35 -403.72 0 0 592.06c0,50.92 12.14,87.35 36.8,108.88 24.29,21.53 63.81,32.11 117.86,32.11l249.06 0 0 197.35 -276.47 0c-104.94,0 -186.78,-32.89 -245.52,-98.3 -59.12,-65.38 -88.5,-153.89 -88.5,-265.49l0 -1046.3 206.77 0 0 282.33 403.72 0z"/>
   <path class="fil7" d="M1942.41 8091.54l-220.86 0 0 -1644.65 643.93 0c113.17,0 219.7,21.96 319.91,65.38 100.22,43.44 186,102.99 257.66,177.79 71.26,74.8 127.28,162.11 168,261.98 40.34,99.84 60.69,205.56 60.69,317.16 0,110.82 -19.96,215.78 -59.52,314.84 -39.93,99.08 -96.33,186.8 -169.16,263.14 -72.83,76.36 -158.96,136.45 -258.44,179.73 -99.38,43.2 -205.64,64.63 -318.75,64.63l-329.46 0 0 -206.74 349.06 0c99.46,0 191.96,-26.98 278,-81.46 85.81,-54.32 153.91,-128.44 203.64,-222.42 49.73,-94.36 74.39,-198.14 74.39,-312.49 0,-90.04 -15.65,-172.67 -46.98,-248.24 -31.33,-75.2 -75.2,-140.2 -131.19,-195.01 -56.39,-54.83 -124.12,-97.11 -203.61,-126.87 -79.49,-29.76 -164.52,-44.66 -254.53,-44.66l-362.76 0 0 1437.9z"/>
   <path class="fil8" d="M4116.13 7827.22l0 213.03c-43.47,23.1 -88.88,41.5 -136.67,54.83 -47.38,13.3 -90.45,19.96 -129.6,19.96 -108.47,0 -206.77,-24.69 -295.25,-74.42 -88.5,-49.73 -158.2,-118.24 -209.5,-205.56 -51.3,-87.34 -76.77,-184.83 -76.77,-292.52 0,-113.17 24.29,-215.76 72.85,-307.39 48.54,-91.63 117.08,-164.08 204.78,-216.16 88.13,-52.45 189.53,-78.71 304.26,-78.71 83.43,0 159.77,15.68 229.49,46.6 69.7,30.95 128.44,72.83 176.6,125.31 48.17,52.86 85.13,112.33 110.8,178.95 25.61,66.48 38.39,136.29 38.39,208.71 0,266.76 42.42,601.56 -168,804.28 -53.24,51.3 -115.94,90.02 -188.34,116.3 -72.07,26.15 -150,39.56 -233.41,39.56 -113.17,0 -236.91,-21.94 -371.61,-65.41l49.35 -188.34c68.92,18.4 126.52,32.33 173.07,41.91 46.63,9.58 93.2,14.46 139.8,14.49 469.1,0.27 392.36,-381.7 392.36,-716.56 0,-81.06 -16.06,-152.75 -48.17,-215 -32.08,-62.25 -75.58,-110.41 -130.79,-143.71 -54.83,-33.27 -114.73,-49.73 -178.95,-49.73 -78.71,0 -145.65,18.81 -201.27,56.39 -55.2,37.59 -96.73,87.32 -123.74,149.19 -27.01,62.28 -40.72,131.98 -40.72,210.28 0,72.85 16.43,136.67 49.33,191.88 32.89,55.2 78.33,97.52 135.89,127.66 57.56,29.76 121.78,44.66 191.88,44.66 72.83,0 160.93,-30.17 263.92,-90.48z"/>
  </g>
  <g id="_1976975966736">
   <path class="fil9" d="M5247.31 4321.17l0 -519.45 -938.8 -938.72 418.46 0 0 -639.66 -1280.24 0c-163.63,0 -297.24,133.62 -297.24,297.24l0 1347.4 639.66 0 0 -485.59 938.76 938.77 519.4 0z"/>
   <path class="fil10" d="M4955.45 4982.64l-1166.3 0 0 -886.21 0 -112.28 -639.67 0 0 112.28 0 1530.67c0,163.71 133.54,297.25 297.25,297.25l1508.72 0c1006.76,0 1827.92,-821.15 1827.92,-1827.92l0 -45.17c0,-410.1 -136.25,-789.39 -365.8,-1094.94 547.49,860.67 -150.13,2026.31 -1462.12,2026.31z"/>
   <path class="fil11" d="M4955.45 2223.35l-112.28 0 0 639.66c633.25,0 1132.74,413.18 1132.74,1076.59 0,572.51 -446.92,1007.02 -1010.9,1040.98 -3.22,0.64 -6.32,1.44 -9.56,2.06 2274.88,0 2131.45,-2759.29 0,-2759.29z"/>
  </g>
 </g>
</svg>